<?xml version="1.0" encoding="UTF-8"?>
<!-- Generator: Adobe Illustrator 16.0.0, SVG Export Plug-In . SVG Version: 6.00 Build 0)  -->
<svg xmlns="http://www.w3.org/2000/svg" xmlns:xlink="http://www.w3.org/1999/xlink" version="1.1" id="Layer_1" x="0px" y="0px" width="2306.483px" height="345.326px" viewBox="0 0 2306.483 345.326" xml:space="preserve">
<g>
	<g>
		<path fill="#01161E" d="M67.99,140.363c0-60.116,0-70.907-0.771-83.238c-0.771-13.102-3.854-19.268-16.57-21.965    c-3.083-0.771-9.634-1.156-13.103-1.156c-1.541,0-3.083-0.771-3.083-2.312c0-2.312,1.927-3.083,6.166-3.083    c17.341,0,40.077,1.156,42.39,1.156c3.468,0,25.819-1.156,37.38-1.156c4.239,0,6.166,0.771,6.166,3.083    c0,1.542-1.542,2.312-3.083,2.312c-2.696,0-5.01,0.386-9.634,1.156c-10.405,1.927-13.488,8.478-14.259,21.965    c-0.771,12.332-0.771,23.122-0.771,83.238v23.122h1.541c6.553-7.322,76.303-78.229,90.176-93.257    c10.79-11.175,20.81-21.195,20.81-27.746c0-4.624-1.927-6.937-5.01-8.092c-1.927-0.771-3.468-1.542-3.468-3.083    c0-1.927,1.927-2.698,4.623-2.698c7.707,0,19.653,1.156,28.901,1.156c1.928,0,27.361-1.156,36.995-1.156    c4.239,0,5.78,0.771,5.78,2.698c0,1.927-0.771,2.697-3.854,2.697c-5.78,0-13.873,1.927-21.58,5.395    c-15.8,6.937-24.276,16.571-41.619,33.141c-9.634,9.249-76.687,74.76-84.778,84.394c10.02,11.175,90.175,94.028,105.975,108.672    c32.37,30.058,38.921,36.224,57.418,43.931c10.02,4.238,21.195,5.01,23.893,5.01c2.698,0,5.011,0.771,5.011,2.313    c0,1.928-1.928,3.084-8.479,3.084H291.5c-10.79,0-18.112,0-26.59-0.771c-20.426-1.927-30.06-10.404-46.63-23.508    c-17.342-14.258-99.037-102.505-117.534-125.242h-1.928v37.765c0,36.995,0,67.438,1.928,83.624    c1.155,11.176,3.469,19.652,15.028,21.194c5.396,0.771,11.562,1.541,15.029,1.541c2.313,0,3.082,1.156,3.082,2.313    c0,1.927-1.927,3.082-6.165,3.082c-18.883,0-41.234-1.155-44.316-1.155c-3.083,0-25.435,1.155-36.994,1.155    c-4.239,0-6.166-0.771-6.166-3.082c0-1.156,0.771-2.313,3.083-2.313c3.469,0,8.093-0.771,11.562-1.541    c7.707-1.542,9.634-10.021,11.175-21.194c1.928-16.186,1.928-46.628,1.928-83.624L67.99,140.363L67.99,140.363z"></path>
		<path fill="#01161E" d="M357.785,140.363c0-60.116,0-70.907-0.771-83.238c-0.771-13.102-3.854-19.268-16.57-21.965    c-3.083-0.771-9.634-1.156-13.103-1.156c-1.541,0-3.083-0.771-3.083-2.312c0-2.312,1.927-3.083,6.166-3.083    c17.341,0,41.619,1.156,43.546,1.156c4.239,0,33.525-1.156,45.473-1.156c24.277,0,50.097,2.313,70.521,16.956    c9.635,6.937,26.591,25.819,26.591,52.409c0,28.517-11.946,57.033-46.629,89.018c31.6,40.463,57.804,74.76,80.154,98.652    c20.81,21.965,37.381,26.205,47.015,27.746c7.32,1.155,12.717,1.155,15.028,1.155c1.928,0,3.469,1.156,3.469,2.313    c0,2.313-2.313,3.082-9.249,3.082h-27.36c-21.58,0-31.214-1.926-41.233-7.321c-16.569-8.863-30.058-27.746-52.022-56.647    c-16.187-21.195-34.298-47.014-42.005-57.034c-1.541-1.542-2.697-2.312-5.01-2.312l-47.399-0.771    c-1.927,0-2.697,1.156-2.697,3.083v9.249c0,36.995,0,67.438,1.928,83.623c1.155,11.177,3.469,19.653,15.028,21.195    c5.396,0.771,13.873,1.541,17.341,1.541c2.313,0,3.083,1.156,3.083,2.313c0,1.928-1.927,3.084-6.166,3.084    c-21.193,0-45.473-1.156-47.398-1.156c-0.385,0-24.663,1.156-36.225,1.156c-4.238,0-6.165-0.771-6.165-3.084    c0-1.155,0.771-2.313,3.083-2.313c3.469,0,8.093-0.771,11.562-1.541c7.707-1.542,9.634-10.02,11.175-21.195    c1.927-16.185,1.927-46.627,1.927-83.623v-67.825H357.785z M388.615,173.89c0,1.927,0.771,3.468,2.697,4.624    c5.78,3.468,23.507,6.166,40.463,6.166c9.249,0,20.039-1.156,28.902-7.322c13.486-9.249,23.507-30.058,23.507-59.346    c0-48.17-25.434-77.072-66.667-77.072c-11.563,0-21.966,1.156-25.819,2.313c-1.927,0.771-3.083,2.312-3.083,4.624V173.89z"></path>
	</g>
	<path fill="#01161E" d="M519.795,25l28.436,49.252c1.34-0.79,2.896-1.252,4.563-1.252h203c4.972,0,9,4.029,9,9s-4.028,9-9,9H557.9   l19.052,33h139.843c4.971,0,9,4.029,9,9s-4.029,9-9,9H587.345l18.475,32h85.976c4.971,0,9,4.029,9,9s-4.029,9-9,9h-75.582   l73.733,127.713L860.097,25H519.795z"></path>
</g>
<g>
	<path fill="#01161E" d="M1194.756,79.264l-21.759,20.615c-15.65-15.396-32.799-27.071-51.436-35.023   c-18.644-7.952-36.806-11.931-54.491-11.931c-22.015,0-42.978,5.411-62.891,16.225c-19.914,10.817-35.342,25.481-46.282,43.993   c-10.946,18.514-16.415,38.078-16.415,58.691c0,21.122,5.66,41.197,16.986,60.219c11.323,19.023,26.974,33.974,46.952,44.852   c19.976,10.88,41.861,16.32,65.657,16.32c28.884,0,53.314-8.143,73.291-24.433c19.978-16.285,31.811-37.407,35.501-63.367h-89.514   v-27.101h121.009c-0.257,43.391-13.143,77.841-38.652,103.352c-25.511,25.513-59.646,38.267-102.398,38.267   c-51.915,0-93.016-17.684-123.298-53.058c-23.285-27.229-34.927-58.722-34.927-94.478c0-26.592,6.68-51.342,20.04-74.245   c13.361-22.904,31.685-40.813,54.969-53.729c23.285-12.912,49.624-19.372,79.016-19.372c23.794,0,46.19,4.295,67.184,12.883   C1154.293,46.53,1174.779,60.307,1194.756,79.264z"></path>
	<path fill="#01161E" d="M1266.33,32.12h55.922c31.175,0,52.297,1.279,63.367,3.824c16.668,3.826,30.217,12.009,40.652,24.558   c10.433,12.549,15.651,27.996,15.651,46.344c0,15.289-3.598,28.732-10.784,40.323c-7.19,11.597-17.462,20.354-30.824,26.276   c-13.36,5.926-31.813,8.953-55.351,9.076l100.966,130.36h-34.71l-100.973-130.359h-15.862v130.359h-28.057V32.12H1266.33z    M1294.386,59.604v95.432l48.367,0.385c18.734,0,32.592-1.78,41.578-5.344c8.985-3.559,15.995-9.255,21.03-17.082   c5.035-7.825,7.552-16.573,7.552-26.247c0-9.415-2.55-17.971-7.647-25.671c-5.1-7.698-11.789-13.2-20.073-16.509   c-8.285-3.308-22.051-4.966-41.293-4.966h-49.514V59.604z"></path>
	<path fill="#01161E" d="M1635.743,25.059c42.524,0,78.11,14.19,106.758,42.563c28.649,28.377,42.975,63.304,42.975,104.783   c0,41.101-14.293,75.963-42.879,104.593c-28.586,28.63-63.438,42.943-104.563,42.943c-41.635,0-76.778-14.247-105.426-42.753   c-28.648-28.5-42.972-62.983-42.972-103.446c0-26.976,6.524-51.978,19.575-75.01c13.05-23.029,30.843-41.068,53.379-54.109   C1585.13,31.582,1609.512,25.059,1635.743,25.059z M1636.987,52.354c-20.775,0-40.466,5.412-59.073,16.237   c-18.609,10.825-33.138,25.407-43.588,43.741c-10.449,18.338-15.674,38.776-15.674,61.316c0,33.366,11.564,61.539,34.694,84.523   c23.131,22.988,51.011,34.478,83.641,34.478c21.792,0,41.96-5.285,60.503-15.853c18.544-10.569,33.007-25.021,43.396-43.358   c10.387-18.338,15.582-38.713,15.582-61.127c0-22.282-5.195-42.436-15.582-60.457c-10.39-18.021-25.013-32.438-43.874-43.264   C1678.15,57.765,1658.142,52.354,1636.987,52.354z"></path>
	<path fill="#01161E" d="M1842.736,32.12h28.056v169.486c0,20.107,0.384,32.639,1.147,37.601c1.397,11.07,4.642,20.329,9.732,27.77   c5.09,7.444,12.913,13.68,23.476,18.706c10.562,5.028,21.188,7.539,31.875,7.539c9.287,0,18.194-1.97,26.721-5.916   c8.523-3.943,15.651-9.414,21.378-16.414c5.727-6.997,9.924-15.459,12.596-25.384c1.908-7.125,2.862-21.76,2.862-43.9V32.124   h28.058v169.485c0,25.07-2.451,45.331-7.351,60.79c-4.899,15.462-14.695,28.919-29.391,40.369   c-14.697,11.451-32.48,17.176-53.347,17.176c-22.65,0-42.057-5.408-58.212-16.223c-16.161-10.815-26.978-25.129-32.448-42.945   c-3.434-10.943-5.152-30.662-5.152-59.169V32.12L1842.736,32.12z"></path>
	<path fill="#01161E" d="M2097.538,32.12h55.922c32.065,0,53.696,1.403,64.894,4.201c16.034,3.944,29.139,12.057,39.319,24.334   c10.18,12.28,15.27,27.708,15.27,46.283c0,18.708-4.966,34.137-14.889,46.286c-9.926,12.153-23.604,20.328-41.035,24.526   c-12.728,3.054-36.521,4.581-71.385,4.581h-20.039v130.549h-28.057V32.12z M2125.598,59.604v95.241l47.524,0.574   c19.213,0,33.272-1.745,42.18-5.239c8.906-3.491,15.905-9.143,20.996-16.954c5.087-7.807,7.635-16.539,7.635-26.192   c0-9.396-2.548-17.999-7.635-25.809c-5.091-7.81-11.804-13.365-20.135-16.667c-8.338-3.302-21.982-4.956-40.939-4.956h-49.626   V59.604z"></path>
</g>
</svg>
