<?xml version="1.0" encoding="UTF-8"?>
<!-- Generator: Adobe Illustrator 16.0.0, SVG Export Plug-In . SVG Version: 6.00 Build 0)  -->
<svg xmlns="http://www.w3.org/2000/svg" xmlns:xlink="http://www.w3.org/1999/xlink" version="1.1" id="Layer_1" x="0px" y="0px" width="881.956px" height="560px" viewBox="0 0 881.956 560" xml:space="preserve">
<g>
	<g>
		<path d="M67.99,140.363c0-60.116,0-70.907-0.771-83.238c-0.771-13.102-3.854-19.268-16.57-21.965    c-3.083-0.771-9.634-1.156-13.103-1.156c-1.541,0-3.083-0.771-3.083-2.312c0-2.312,1.927-3.083,6.166-3.083    c17.341,0,40.077,1.156,42.39,1.156c3.468,0,25.819-1.156,37.38-1.156c4.239,0,6.166,0.771,6.166,3.083    c0,1.542-1.542,2.312-3.083,2.312c-2.697,0-5.01,0.386-9.634,1.156c-10.405,1.927-13.488,8.478-14.259,21.965    c-0.771,12.332-0.771,23.122-0.771,83.238v23.122h1.541c6.552-7.322,76.302-78.229,90.175-93.257    c10.79-11.175,20.81-21.195,20.81-27.746c0-4.624-1.927-6.937-5.01-8.092c-1.927-0.771-3.468-1.542-3.468-3.083    c0-1.927,1.927-2.698,4.624-2.698c7.707,0,19.653,1.156,28.901,1.156c1.928,0,27.361-1.156,36.995-1.156    c4.239,0,5.78,0.771,5.78,2.698s-0.771,2.697-3.854,2.697c-5.78,0-13.873,1.927-21.58,5.395    c-15.8,6.937-24.277,16.571-41.619,33.141c-9.634,9.249-76.687,74.76-84.779,84.394c10.02,11.175,90.175,94.028,105.975,108.672    c32.37,30.058,38.921,36.224,57.418,43.931c10.02,4.239,21.195,5.01,23.893,5.01c2.698,0,5.01,0.771,5.01,2.313    c0,1.927-1.927,3.083-8.478,3.083H291.5c-10.79,0-18.112,0-26.59-0.771c-20.425-1.927-30.059-10.405-46.629-23.508    c-17.342-14.258-99.038-102.505-117.535-125.242h-1.927v37.765c0,36.995,0,67.438,1.927,83.623    c1.156,11.176,3.469,19.653,15.029,21.195c5.395,0.771,11.561,1.541,15.029,1.541c2.312,0,3.082,1.156,3.082,2.313    c0,1.927-1.927,3.083-6.165,3.083c-18.883,0-41.234-1.156-44.316-1.156c-3.083,0-25.435,1.156-36.995,1.156    c-4.239,0-6.166-0.771-6.166-3.083c0-1.156,0.771-2.313,3.083-2.313c3.469,0,8.093-0.771,11.562-1.541    c7.707-1.542,9.634-10.02,11.175-21.195c1.927-16.185,1.927-46.628,1.927-83.623V140.363z"></path>
		<path d="M357.786,140.363c0-60.116,0-70.907-0.771-83.238c-0.771-13.102-3.854-19.268-16.57-21.965    c-3.083-0.771-9.634-1.156-13.103-1.156c-1.541,0-3.083-0.771-3.083-2.312c0-2.312,1.927-3.083,6.166-3.083    c17.341,0,41.619,1.156,43.546,1.156c4.239,0,33.526-1.156,45.473-1.156c24.277,0,50.097,2.313,70.521,16.956    c9.635,6.937,26.591,25.819,26.591,52.409c0,28.517-11.946,57.033-46.629,89.018c31.6,40.463,57.804,74.76,80.155,98.653    c20.809,21.965,37.38,26.204,47.014,27.745c7.321,1.156,12.717,1.156,15.029,1.156c1.927,0,3.468,1.156,3.468,2.313    c0,2.313-2.312,3.083-9.249,3.083h-27.36c-21.58,0-31.214-1.927-41.233-7.322c-16.57-8.863-30.058-27.746-52.023-56.647    c-16.186-21.195-34.298-47.014-42.005-57.034c-1.541-1.542-2.697-2.312-5.01-2.312l-47.399-0.771    c-1.927,0-2.697,1.156-2.697,3.083v9.249c0,36.995,0,67.438,1.927,83.623c1.156,11.176,3.469,19.653,15.029,21.195    c5.395,0.771,13.873,1.541,17.341,1.541c2.313,0,3.083,1.156,3.083,2.313c0,1.927-1.927,3.083-6.166,3.083    c-21.194,0-45.473-1.156-47.399-1.156c-0.385,0-24.663,1.156-36.224,1.156c-4.239,0-6.166-0.771-6.166-3.083    c0-1.156,0.771-2.313,3.083-2.313c3.469,0,8.093-0.771,11.562-1.541c7.707-1.542,9.634-10.02,11.175-21.195    c1.927-16.185,1.927-46.628,1.927-83.623V140.363z M388.615,173.89c0,1.927,0.771,3.468,2.697,4.624    c5.78,3.468,23.507,6.166,40.463,6.166c9.249,0,20.039-1.156,28.902-7.322c13.487-9.249,23.507-30.058,23.507-59.346    c0-48.17-25.434-77.072-66.667-77.072c-11.562,0-21.966,1.156-25.819,2.313c-1.927,0.771-3.083,2.312-3.083,4.624V173.89z"></path>
	</g>
	<path d="M519.795,25l28.436,49.252c1.34-0.79,2.896-1.252,4.563-1.252h203c4.971,0,9,4.029,9,9s-4.029,9-9,9H557.9l19.052,33   h139.842c4.971,0,9,4.029,9,9s-4.029,9-9,9H587.345l18.475,32h85.975c4.971,0,9,4.029,9,9s-4.029,9-9,9h-75.582l73.734,127.713   L860.097,25H519.795z"></path>
</g>
<g>
	<path d="M185.219,387.956l-12.858,12.182c-9.249-9.098-19.383-15.997-30.397-20.697c-11.017-4.699-21.751-7.05-32.202-7.05   c-13.01,0-25.398,3.197-37.166,9.588c-11.769,6.392-20.886,15.058-27.352,25.998c-6.468,10.941-9.7,22.502-9.7,34.684   c0,12.483,3.345,24.346,10.038,35.587c6.692,11.242,15.941,20.077,27.747,26.506c11.805,6.43,24.739,9.644,38.801,9.644   c17.069,0,31.507-4.811,43.313-14.438c11.805-9.624,18.798-22.107,20.979-37.447h-52.899v-16.016h71.511   c-0.151,25.643-7.766,46.001-22.841,61.077c-15.077,15.077-35.248,22.614-60.514,22.614c-30.68,0-54.969-10.45-72.864-31.355   c-13.761-16.091-20.641-34.702-20.641-55.833c0-15.715,3.947-30.341,11.843-43.876s18.724-24.119,32.484-31.752   c13.761-7.631,29.326-11.448,46.696-11.448c14.061,0,27.296,2.538,39.703,7.613C161.307,368.612,173.413,376.753,185.219,387.956z"></path>
	<path d="M227.517,360.096h33.048c18.423,0,30.905,0.755,37.447,2.26c9.851,2.26,17.858,7.096,24.025,14.512   c6.165,7.416,9.249,16.545,9.249,27.388c0,9.035-2.126,16.979-6.373,23.829c-4.249,6.853-10.32,12.028-18.216,15.528   c-7.896,3.502-18.8,5.291-32.71,5.364l59.667,77.038h-20.513l-59.671-77.038h-9.374v77.038h-16.58V360.096z M244.097,376.338   v56.396l28.583,0.228c11.071,0,19.261-1.052,24.571-3.158c5.31-2.104,9.453-5.47,12.428-10.095   c2.976-4.624,4.463-9.794,4.463-15.511c0-5.563-1.507-10.62-4.519-15.171c-3.014-4.549-6.967-7.8-11.863-9.756   c-4.896-1.955-13.031-2.934-24.402-2.934H244.097z"></path>
	<path d="M445.827,355.923c25.13,0,46.16,8.386,63.09,25.153c16.93,16.769,25.396,37.41,25.396,61.923   c0,24.289-8.447,44.892-25.34,61.811s-37.489,25.378-61.793,25.378c-24.604,0-45.373-8.42-62.303-25.266   c-16.929-16.843-25.394-37.221-25.394-61.133c0-15.941,3.855-30.717,11.568-44.328c7.712-13.609,18.227-24.269,31.545-31.977   C415.916,359.777,430.325,355.923,445.827,355.923z M446.561,372.053c-12.277,0-23.914,3.198-34.91,9.596   c-10.997,6.397-19.583,15.014-25.759,25.849c-6.175,10.837-9.263,22.915-9.263,36.235c0,19.718,6.834,36.368,20.503,49.951   c13.67,13.585,30.146,20.375,49.429,20.375c12.878,0,24.797-3.123,35.755-9.369c10.959-6.246,19.506-14.786,25.645-25.623   s9.209-22.878,9.209-36.124c0-13.168-3.07-25.078-9.209-35.727s-14.781-19.17-25.927-25.567   C470.887,375.251,459.063,372.053,446.561,372.053z"></path>
	<path d="M568.151,360.096h16.58v100.16c0,11.883,0.227,19.288,0.678,22.221c0.826,6.542,2.743,12.013,5.752,16.411   c3.007,4.399,7.631,8.084,13.873,11.054c6.241,2.972,12.521,4.455,18.837,4.455c5.488,0,10.752-1.164,15.791-3.496   c5.037-2.33,9.249-5.563,12.633-9.7c3.384-4.135,5.865-9.136,7.444-15.001c1.128-4.211,1.691-12.859,1.691-25.943v-100.16h16.581   v100.16c0,14.815-1.448,26.789-4.343,35.925c-2.896,9.137-8.685,17.089-17.37,23.856c-8.685,6.768-19.194,10.15-31.525,10.15   c-13.386,0-24.854-3.196-34.401-9.587c-9.551-6.391-15.943-14.85-19.176-25.378c-2.029-6.467-3.045-18.121-3.045-34.967V360.096z"></path>
	<path d="M718.73,360.096h33.048c18.949,0,31.732,0.829,38.35,2.482c9.475,2.331,17.219,7.125,23.236,14.381   c6.015,7.257,9.023,16.374,9.023,27.352c0,11.055-2.934,20.173-8.799,27.353c-5.865,7.182-13.949,12.013-24.25,14.494   c-7.521,1.805-21.582,2.707-42.185,2.707h-11.843v77.15H718.73V360.096z M735.312,376.338v56.284l28.085,0.339   c11.354,0,19.663-1.031,24.927-3.096c5.263-2.063,9.399-5.403,12.408-10.019c3.006-4.614,4.512-9.774,4.512-15.479   c0-5.552-1.506-10.636-4.512-15.252c-3.009-4.615-6.976-7.898-11.9-9.85c-4.926-1.951-12.99-2.928-24.193-2.928H735.312z"></path>
</g>
</svg>
